<svg width="1842" height="406" viewBox="0 0 1842 406" fill="none" xmlns="http://www.w3.org/2000/svg">
<g clip-path="url(#clip0_1_34)">
<path d="M405.5 203.3C405.5 244.6 405.6 285.9 405.5 327.2C405.4 373.5 374.2 405.1 328.2 405.1C245.1 405.3 161.9 405.3 78.8004 405.3C35.0004 405.3 0.900391 372.1 0.700391 328.5C0.300391 245.4 0.300391 162.2 0.700391 79.1C0.900391 33.6 35.0004 0.699988 80.7004 0.699988C162.8 0.699988 244.9 2.09999 326.9 0.299988C368.1 -0.600012 408 35.9 405.8 79.4C403.7 120.6 405.3 162 405.3 203.3H405.5V203.3ZM29.9004 263.5C32.0004 266 34.1004 268.4 36.2004 270.9C75.2004 248.5 118 243.7 161.4 244.1C199.5 244.5 238.9 245.9 271.2 268.1C287.4 279.2 302.5 281.5 320.1 281.3C339 281.1 357.9 281.3 376.7 281.3L379.4 275.6C372.4 268.3 366.6 259 358.3 253.9C312.6 225.6 261.3 218.4 208.8 218.5C180.8 218.6 152.7 221.5 122.2 223.2C140.7 199 158.4 175.9 176.9 151.7C187.7 168.5 197.4 183.6 207.6 199.5C228.1 188 247 177.3 273 162.6C294.2 186 316.5 210.5 338.7 235C339.5 234.3 340.4 233.6 341.2 233C318.7 195.1 296.3 157.1 273.3 118.4C253.6 132.9 236 145.8 217.5 159.3C205.4 138.8 194.1 119.8 181.9 99.1C175.9 106 171.5 110.6 167.5 115.6C138.5 151.4 110 187.7 80.4004 223C70.3004 235 57.6004 245 45.5004 255.2C41.2004 258.9 35.2004 260.7 29.9004 263.5V263.5Z" fill="white"/>
<path d="M702.201 315.1H639.401C637.601 301.7 635.801 289.2 634.301 276.6C633.101 266.6 629.001 261.8 617.801 262.3C598.601 263.2 579.201 261.8 560.001 263C554.001 263.4 546.801 268.3 543.001 273.2C537.301 280.7 532.601 289.8 530.201 298.9C526.401 313.4 517.901 316.4 504.401 315.3C490.201 314.1 475.801 315 459.301 315C477.701 281.3 495.101 249.6 512.301 217.7C534.201 177.2 555.801 136.6 578.001 96.2001C580.101 92.3001 585.601 88.1001 589.601 87.9001C610.901 87.1001 632.201 87.5001 654.101 87.5001C670.201 163.6 686.001 238.2 702.201 315.1V315.1ZM612.301 139.1C610.901 138.9 609.501 138.6 608.101 138.4C595.701 163.7 583.301 189 570.201 215.6H625.101C620.701 189.1 616.501 164.1 612.301 139.1ZM1289.7 191.9C1299.4 167.9 1317.7 154 1339.4 150.7C1367 146.6 1395.8 146.6 1423.5 149.6C1446.9 152.1 1457.1 170.2 1455.1 194.1C1454.9 196.8 1454.4 199.4 1453.9 202.1C1447.8 239.1 1441.7 276 1435.7 312.8C1408.3 318.7 1388.1 316.3 1383.6 309.8C1359.7 312.8 1337.9 317.5 1316 318C1289.9 318.6 1275.3 307.6 1269.7 288.5C1263.9 268.6 1272.3 240.9 1292.1 231.1C1312.3 221.2 1335 216.1 1357 210.3C1367.2 207.6 1378.4 209.2 1388.9 207.5C1393.7 206.7 1397.9 202.7 1402.4 200.1C1398.7 194.4 1395.2 184 1391.1 183.8C1377.8 183.1 1360.6 181.6 1351.8 188.8C1339.2 199.1 1328.7 199.2 1315.3 196.1C1307.7 194.3 1299.7 193.5 1289.7 191.9V191.9ZM1392.5 239C1372.2 243.1 1353.2 245.1 1335.5 251.2C1320.9 256.3 1317.9 272.4 1328.6 278.3C1343.5 286.6 1358.8 282.3 1372.9 275.3C1385.4 269.2 1394.8 260.2 1392.5 239V239ZM1150.5 87.2001C1147.4 105.3 1144.9 120.3 1142.4 134.8C1120.7 134.8 1100.9 135.6 1081.2 134.5C1068.1 133.8 1063.7 139 1061.8 151.3C1053.5 205.2 1044.2 259 1035.2 313.9H977.401C987.401 254.6 997.301 195.8 1007.4 135.7H930.201C932.501 121.2 934.301 107.3 937.201 93.6001C937.701 91.0001 942.101 87.4001 944.701 87.4001C1012.1 87.1001 1079.5 87.2001 1150.5 87.2001V87.2001ZM1842 190.3C1825.8 192.1 1809.6 194 1793.4 195.4C1791.5 195.6 1789.1 192.8 1787.5 191C1777.2 179.6 1762.5 176.1 1748.9 183.3C1744.8 185.5 1740.8 190.5 1740 194.9C1739.6 197.1 1745.7 202.3 1749.6 203.5C1765.5 208.2 1781.7 211.7 1797.7 216C1815.3 220.7 1832.8 226.9 1836.1 247.6C1839.7 270 1832 290.3 1812.8 302.2C1774.1 326 1732.7 326.1 1691.3 309C1684.5 306.2 1678.3 299.3 1674.2 292.8C1661.9 273.3 1665.8 266.3 1688.6 264.4C1695.5 263.8 1702.6 261.3 1709.3 262.1C1715.2 262.8 1722.2 265.6 1726 269.9C1736.5 282.1 1767.1 285.2 1778.7 274C1786.7 266.3 1784.1 257.8 1771.5 254.2C1757.1 250.1 1742.2 247.9 1727.7 244.1C1708.8 239.2 1689.4 234.4 1686.7 209.9C1684 185.4 1695.1 165.1 1718.7 154C1748.6 139.9 1779.8 138.8 1811.1 149C1830.5 155.4 1838.9 167.1 1842 190.3V190.3ZM1163.4 314.4H1109.7C1118.9 259.4 1128 205.2 1137.3 149.9H1188.8V168.3C1215.7 146.8 1243.9 140.7 1276.9 149.2C1270.3 164 1264.9 177.4 1258.3 190C1256.9 192.7 1250.5 194.4 1246.8 193.8C1202.6 186.9 1181.6 202.1 1174.5 246.7C1170.8 269 1167.2 291.1 1163.4 314.4V314.4ZM763.101 88.4001H817.401C804.701 163.9 792.201 238.5 779.501 314.2H725.201C737.901 238.7 750.401 164.1 763.101 88.4001ZM874.201 314.3H819.901C832.601 238.8 845.101 164.2 857.801 88.6001H912.001C899.501 163.6 886.901 238.3 874.201 314.3V314.3ZM1609 88.5001H1663.1C1650.4 164.2 1637.8 239 1625.1 314.4H1571.1C1583.7 239.1 1596.2 164.4 1609 88.5001V88.5001ZM1530.1 314.4H1475.9C1485.2 259.3 1494.4 204.8 1503.7 149.6H1557.7C1548.5 204.5 1539.5 258.6 1530.1 314.4ZM1568.8 88.5001C1567 100 1566.1 110.5 1563.4 120.6C1562.6 123.7 1557.1 127.5 1553.5 127.7C1538.7 128.5 1523.8 128 1506.2 128C1508.7 113.9 1510.9 101.3 1513.1 88.4001C1532.1 88.5001 1549.5 88.5001 1568.8 88.5001V88.5001Z" fill="white"/>
</g>
<defs>
<clipPath id="clip0_1_34">
<rect width="1842" height="406" fill="white"/>
</clipPath>
</defs>
</svg>
