<svg width="192" height="53" viewBox="0 0 192 53" fill="none" xmlns="http://www.w3.org/2000/svg">
<path d="M33.297 26.1569H29.5944C28.7128 26.1569 28.272 26.6702 28.272 27.6967V37.7848C28.272 38.8114 28.7128 39.3246 29.5944 39.3246H33.297C34.1786 39.3246 34.6194 38.8114 34.6194 37.7848V34.8115H33.0854V37.7318H29.8588V27.7498H33.0854V30.2984H34.6194V27.6967C34.6194 26.6702 34.1786 26.1569 33.297 26.1569ZM42.1834 37.6256L38.6923 37.7318V26.1569H37.1584V37.9441C37.1584 38.9353 37.5815 39.4131 38.4279 39.3777L40.2792 39.2184L42.1305 38.953V39.3246H43.6645V26.1569H42.1834V37.6256ZM46.3622 39.3246H47.8961V18.1925H46.3622V39.3246ZM52.6567 22.0685H51.1227V26.1569H49.7475V27.7498H51.1227V37.7848C51.1227 38.8114 51.5635 39.3246 52.4451 39.3246H54.6667V37.7318H52.6567V27.7498H54.6667V26.1569H52.6567V22.0685ZM61.6489 37.6256L58.1578 37.7318V26.1569H56.6238V37.9441C56.6238 38.9353 57.047 39.4131 57.8933 39.3777L59.7447 39.2184L61.596 38.953V39.3246H63.1829V26.1569H61.6489V37.6256ZM70.4295 26.1038L68.8427 26.2631L67.2558 26.5286V26.1569H65.6689V39.3246H67.2558V27.9091L70.1121 27.8029V30.5107H71.6461V27.5374C71.6814 26.5817 71.2758 26.1038 70.4295 26.1038ZM78.787 26.21H75.0314C74.1498 26.21 73.709 26.7233 73.709 27.7498V37.8379C73.709 38.8645 74.1498 39.3777 75.0314 39.3777H78.787C79.6686 39.3777 80.1094 38.8645 80.1094 37.8379V35.3955H78.5754V37.7848H75.243V33.0062H79.5804L80.1094 32.3691V27.6967C80.1094 26.6702 79.6686 26.1569 78.787 26.1569V26.21ZM78.5754 31.6258H75.243V27.6967H78.6283V31.6788L78.5754 31.6258ZM133.692 26.21H132L129.037 31.6258V18.1925H127.451V39.3246H129.037V32.6346L132.211 39.3246H133.904L130.36 32.0505L133.692 26.21ZM135.649 39.3246H137.183V26.1569H135.649V39.3246ZM135.649 23.2897H137.236V21.0066H135.649V23.2897ZM145.118 26.1038L143.266 26.2631L141.415 26.5286V26.1569H139.828V39.3246H141.415V27.9091L144.853 27.8029V39.3246H146.44V27.5374C146.44 26.5817 145.999 26.1038 145.118 26.1038ZM153.898 26.5286L151.095 26.1038C150.787 26.1017 150.482 26.1728 150.206 26.3112C149.931 26.4496 149.691 26.6514 149.508 26.9002C149.073 27.4601 148.849 28.1555 148.873 28.8648V36.5106C148.846 37.2453 149.091 37.9641 149.561 38.5282C149.774 38.7834 150.042 38.9873 150.344 39.1252C150.646 39.263 150.975 39.3311 151.306 39.3246H153.898V42.7758H150.619V41.0237H149.085V42.3511C149.085 43.6254 149.543 44.2625 150.46 44.2625H154.163C155.044 44.2625 155.485 43.7493 155.485 42.7227V26.1569H153.951V26.5286H153.898ZM153.898 37.7318H151.73C150.883 37.7318 150.46 37.2185 150.46 36.192V29.1833C150.46 28.1568 150.883 27.6436 151.73 27.6436L153.898 27.8029V37.7318ZM163.578 33.8558L159.452 29.9798V27.7498H162.626V30.3515H164.16V27.6967C164.16 26.6702 163.719 26.1569 162.838 26.1569H159.294C158.412 26.1569 157.971 26.6702 157.971 27.6967V29.8736C157.964 30.1321 158.012 30.3891 158.113 30.6273C158.213 30.8655 158.363 31.0792 158.553 31.2541L162.626 35.1301V37.7318H159.452V34.8115H157.918V37.7848C157.918 38.8114 158.359 39.3246 159.241 39.3246H162.838C163.719 39.3246 164.16 38.8114 164.16 37.7848V35.2894C164.178 35.0264 164.14 34.7626 164.049 34.5154C163.958 34.2683 163.815 34.0434 163.631 33.8558H163.578ZM95.7664 44.7404C95.4875 44.3919 95.2725 43.9963 95.1316 43.5723C94.9729 42.9882 95.2903 42.298 95.1845 41.7139C95.1658 41.5363 95.0918 41.3691 94.9729 41.2361L95.3961 41.3954L95.7664 41.6608C95.9573 41.8469 96.118 42.0619 96.2424 42.298C96.5302 42.7783 96.6769 43.3305 96.6656 43.8909C96.6575 44.1274 96.5839 44.357 96.4531 44.554C96.3223 44.7509 96.1395 44.9074 95.925 45.0059L95.7664 44.7404ZM95.7664 44.7404L95.925 45.0059L95.7664 44.7404ZM97.6706 44.528C97.7034 44.8425 97.793 45.1484 97.9351 45.4306C98.0591 45.698 98.2623 45.9205 98.5169 46.0678L98.9401 46.3332L99.0459 46.5456C99.0628 46.467 99.0992 46.394 99.1517 46.3332C99.3013 46.0541 99.3914 45.7467 99.4161 45.4306C99.4362 45.1514 99.3997 44.871 99.3088 44.6063C99.2179 44.3417 99.0745 44.0983 98.8872 43.8909L98.3582 43.3068C98.1528 43.1622 97.9583 43.0024 97.7764 42.8289C97.7983 43.0762 97.7983 43.325 97.7764 43.5723C97.6988 43.8847 97.6632 44.2061 97.6706 44.528ZM92.3282 41.8732C92.3928 42.1202 92.5002 42.3538 92.6455 42.5635L92.8571 42.8289C93.0687 43.0944 93.2803 42.9882 93.439 42.7227C93.5141 42.6465 93.572 42.5548 93.6085 42.454C93.645 42.3532 93.6594 42.2456 93.6506 42.1387C93.6221 41.9036 93.569 41.6722 93.4919 41.4484C93.423 41.1942 93.3346 40.9457 93.2274 40.7051L92.91 39.9618C92.8371 39.7179 92.7302 39.4855 92.5926 39.2715C92.5666 39.4218 92.5128 39.5659 92.434 39.6963C92.3476 39.903 92.2769 40.116 92.2224 40.3334C92.1049 40.8459 92.1418 41.3818 92.3282 41.8732ZM87.6734 27.5905L88.3081 27.4843C88.5901 27.3576 88.8434 27.1745 89.0525 26.9463C89.2617 26.7181 89.4224 26.4495 89.5247 26.1569C89.6236 25.8634 89.6944 25.5612 89.7363 25.2543C89.7926 24.992 89.828 24.7257 89.8421 24.4578L89.1016 25.095L88.3081 25.8383C87.9075 26.3553 87.6848 26.9887 87.6734 27.6436V27.5905ZM89.5247 34.6522C89.3924 34.9934 89.2145 35.3149 88.9958 35.6079C88.8331 35.8663 88.7251 36.1554 88.6784 36.4575C88.6356 36.739 88.6356 37.0254 88.6784 37.307C88.7035 37.5826 88.775 37.8519 88.89 38.1034C89.154 37.9282 89.3719 37.6914 89.5247 37.4132C89.7135 37.196 89.8575 36.9434 89.9483 36.67C90.0391 36.3966 90.0749 36.1077 90.0537 35.8203C90.0156 35.5472 89.9446 35.2797 89.8421 35.0239C89.7856 34.7902 89.6771 34.5723 89.5247 34.3867C89.5331 34.4928 89.5331 34.5993 89.5247 34.7053V34.6522ZM90.0537 39.4839C90.0893 39.7475 90.1794 40.0006 90.3181 40.2272C90.4297 40.4417 90.5934 40.6244 90.7942 40.7582C91.0143 40.5517 91.2096 40.32 91.3761 40.068C91.6569 39.5293 91.7321 38.9062 91.5876 38.3158C91.5163 38.0378 91.4097 37.7701 91.2703 37.5194C91.2013 37.2823 91.1128 37.0515 91.0058 36.8291C90.905 37.1308 90.7626 37.4168 90.5826 37.6787C90.3492 37.9815 90.1702 38.3229 90.0537 38.6875C89.9936 38.9674 89.9936 39.257 90.0537 39.537V39.4839ZM84.6055 29.4488L84.1823 29.1303L83.7591 28.9179C83.6533 28.9179 83.7062 29.2364 83.7591 29.2895C83.823 29.5971 83.9114 29.8989 84.0236 30.1922C84.1646 30.6059 84.3603 30.9988 84.6055 31.3603C84.8588 31.7198 85.1616 32.0415 85.5047 32.316C85.7717 32.5007 86.055 32.6607 86.351 32.7939C86.3291 32.582 86.3291 32.3685 86.351 32.1567C86.3452 32.0314 86.3275 31.9069 86.2981 31.785L86.1923 31.3603C86.054 30.8651 85.8001 30.41 85.4518 30.0329L84.6055 29.4488ZM108.408 45.4306C108.433 45.7467 108.523 46.0541 108.673 46.3332C108.725 46.394 108.762 46.467 108.779 46.5456L108.884 46.3332L109.308 46.0678C109.562 45.9205 109.765 45.698 109.889 45.4306C110.031 45.1484 110.121 44.8425 110.154 44.528C110.162 44.2061 110.126 43.8846 110.048 43.5723C110.027 43.325 110.027 43.0763 110.048 42.8289C109.867 43.0029 109.672 43.1626 109.466 43.3068L108.937 43.8909C108.743 44.1046 108.596 44.3567 108.505 44.6311C108.414 44.9054 108.381 45.1959 108.408 45.4837V45.4306ZM86.2452 26.8471C86.1265 26.5703 85.9849 26.3039 85.822 26.0507L85.2402 25.3605L84.9757 25.095C84.936 25.0152 84.8822 24.9433 84.817 24.8826C84.7614 25.1449 84.726 25.4112 84.7112 25.679C84.6504 25.9584 84.615 26.2428 84.6055 26.5286C84.5594 27.1361 84.6879 27.7442 84.9757 28.2807C85.1166 28.551 85.3153 28.7867 85.5576 28.971C85.7082 29.1037 85.8904 29.1952 86.0865 29.2364C86.4039 29.2364 86.5097 28.8117 86.5097 28.5993C86.5523 28.2802 86.5344 27.9559 86.4568 27.6436C86.4215 27.3699 86.3504 27.1021 86.2452 26.8471ZM91.0058 21.6438C90.7404 21.7501 90.4912 21.893 90.2653 22.0685L89.3131 22.7588C89.0607 22.9682 88.846 23.2196 88.6784 23.5021C88.5056 23.7748 88.397 24.0835 88.361 24.4047L88.9958 24.1924L89.6305 23.8207C89.8656 23.6083 90.0624 23.3569 90.2124 23.0773C90.5182 22.6238 90.7837 22.144 91.0058 21.6438ZM87.5676 22.6526C87.5202 22.416 87.4493 22.1847 87.356 21.9623C87.3407 21.8369 87.2939 21.7175 87.2198 21.6153C87.1458 21.5131 87.047 21.4315 86.9328 21.3783C86.7213 21.3252 86.7213 21.6969 86.6684 21.8561C86.631 22.107 86.578 22.3553 86.5097 22.5995C86.4076 22.842 86.3193 23.0902 86.2452 23.3428C86.1878 23.6221 86.17 23.9081 86.1923 24.1924C86.2106 24.4436 86.3026 24.6838 86.4568 24.8826C86.5585 25.0778 86.7278 25.2288 86.9328 25.3074C87.0915 25.3074 87.0386 24.8826 87.0386 24.8295C87.0386 24.7764 87.3031 24.3516 87.356 24.0862C87.5317 23.63 87.604 23.1403 87.5676 22.6526ZM112.058 44.7935C112.337 44.445 112.552 44.0494 112.693 43.6254C112.852 43.0413 112.534 42.3511 112.64 41.767C112.659 41.5894 112.733 41.4222 112.852 41.2892L112.428 41.4484L112.058 41.7139C111.868 41.9005 111.707 42.1154 111.582 42.3511C111.294 42.8314 111.148 43.3836 111.159 43.9439C111.167 44.1805 111.241 44.4101 111.371 44.607C111.502 44.804 111.685 44.9605 111.899 45.059L112.058 44.7935ZM112.058 44.7935L111.899 45.059L112.058 44.7935ZM122.426 38.2627L122.796 37.5194C122.843 37.2403 122.972 36.9817 123.166 36.776L122.637 36.9353L121.95 37.1477L121.156 37.5194L120.521 38.1034C120.308 38.302 120.129 38.5354 119.992 38.7937L119.728 39.2184C119.69 39.3316 119.637 39.4388 119.569 39.537H120.468L121.156 39.3777L121.685 39.1122C122.007 38.9056 122.264 38.6108 122.426 38.2627ZM108.99 48.4571C109.157 48.7364 109.421 48.9443 109.731 49.0411C110.09 49.1591 110.464 49.2305 110.842 49.2535C111.267 49.2636 111.693 49.228 112.111 49.1473L112.799 49.0411L113.328 48.8287C112.534 48.6164 111.741 48.2978 110.947 48.0854C110.154 47.873 109.678 47.6606 109.255 47.9792C109.205 47.9913 109.158 48.0136 109.118 48.0447C109.077 48.0758 109.043 48.1151 109.018 48.16C108.993 48.2049 108.978 48.2544 108.973 48.3056C108.968 48.3567 108.974 48.4083 108.99 48.4571ZM119.675 42.0856C120.18 41.82 120.629 41.4595 120.997 41.0237L121.368 40.5989L121.738 40.2272H120.997L120.045 40.4396C119.707 40.5527 119.386 40.7136 119.093 40.9175L118.353 41.4484C118.038 41.6862 117.784 41.9956 117.612 42.3511H118.67L119.675 42.0856ZM124.118 28.9179L123.695 29.1303L123.272 29.4488L122.584 30.0329C122.236 30.41 121.982 30.8651 121.844 31.3603L121.738 31.785C121.708 31.9068 121.69 32.0313 121.685 32.1567C121.707 32.3685 121.707 32.582 121.685 32.7939C121.981 32.6607 122.264 32.5007 122.531 32.316C122.874 32.0415 123.177 31.7198 123.431 31.3603C123.676 30.9988 123.871 30.6059 124.012 30.1922C124.125 29.8991 124.214 29.5972 124.277 29.2895C124.118 29.2364 124.224 28.971 124.118 28.971V28.9179ZM123.219 26.4755C123.209 26.1897 123.174 25.9054 123.113 25.6259C123.098 25.3581 123.063 25.0919 123.007 24.8295C122.942 24.8902 122.889 24.9621 122.849 25.0419L122.584 25.3074L122.002 25.9976C121.839 26.2504 121.697 26.5169 121.579 26.794C121.46 27.0294 121.371 27.2792 121.315 27.5374C121.237 27.8497 121.219 28.174 121.262 28.4931C121.315 28.7055 121.421 29.1303 121.685 29.1303C121.881 29.089 122.063 28.9975 122.214 28.8648C122.456 28.6805 122.655 28.4448 122.796 28.1745C123.092 27.659 123.239 27.0704 123.219 26.4755ZM83.4947 33.0062C83.6123 33.1668 83.7017 33.3464 83.7591 33.5372C83.8649 33.6965 84.0236 33.8027 84.0765 33.9089C84.1229 34.0293 84.1584 34.1537 84.1823 34.2805C84.2505 34.5685 84.3765 34.8395 84.5526 35.077C84.7369 35.2845 84.9508 35.4634 85.1873 35.6079C85.6592 35.9576 86.1749 36.2433 86.7213 36.4575C86.5097 35.9796 86.4568 35.4486 86.1923 34.9177C86.018 34.5179 85.7663 34.157 85.4518 33.8558C85.1292 33.5967 84.7734 33.3824 84.3939 33.2186H84.2352C84.0086 33.0898 83.7548 33.017 83.4947 33.0062ZM121.473 23.3959C121.4 23.1432 121.311 22.895 121.209 22.6526C121.141 22.4083 121.088 22.16 121.05 21.9092C121.05 21.75 120.997 21.3783 120.786 21.4314C120.672 21.4846 120.573 21.5662 120.499 21.6684C120.425 21.7706 120.378 21.89 120.363 22.0154C120.269 22.2376 120.198 22.4689 120.151 22.7057C120.055 23.1988 120.074 23.7073 120.204 24.1924C120.257 24.4578 120.468 24.6702 120.521 24.9357C120.574 25.2012 120.468 25.4136 120.627 25.4136C120.832 25.335 121.001 25.1839 121.103 24.9888C121.257 24.79 121.349 24.5498 121.368 24.2985C121.448 24.0047 121.484 23.7004 121.473 23.3959ZM84.6584 36.8291C84.8522 37.0348 84.981 37.2934 85.0286 37.5725L85.3989 38.3158C85.5613 38.6183 85.798 38.8742 86.0865 39.0591L86.6155 39.3246L87.3031 39.4839H88.2023C88.1354 39.3854 88.082 39.2782 88.0437 39.1653L87.7792 38.7406C87.6436 38.4817 87.4647 38.2482 87.2502 38.0503C87.0585 37.835 86.8458 37.6393 86.6155 37.4663L85.822 37.0946L85.1344 36.8822L84.6584 36.8291ZM86.1394 40.2803L86.5097 40.652L86.88 41.0768C87.2489 41.5126 87.6978 41.8731 88.2023 42.1387L89.2073 42.4573H90.2653C90.0931 42.1018 89.8393 41.7924 89.5247 41.5546L88.7842 41.0237C88.491 40.8198 88.1704 40.6589 87.8321 40.5458L86.88 40.3334H86.1394V40.2803ZM88.6255 43.7847C88.7569 43.7807 88.8863 43.8178 88.9958 43.8909L89.5247 44.1563C90.0008 44.4218 90.371 44.8466 90.9 45.059C91.2166 45.1992 91.5589 45.2715 91.905 45.2713C92.208 45.2752 92.5044 45.1822 92.7513 45.0059C92.7977 44.9613 92.8347 44.9077 92.8599 44.8484C92.8851 44.7891 92.8981 44.7252 92.8981 44.6607C92.8981 44.5962 92.8851 44.5324 92.8599 44.4731C92.8347 44.4138 92.7977 44.3602 92.7513 44.3156C93.4889 44.9008 94.2666 45.4331 95.0787 45.9085H94.2853L92.9629 46.2802L91.6405 46.5456L92.9629 47.0766L93.8092 47.289H94.7085C95.0852 47.2933 95.4542 47.1822 95.7664 46.9704C95.8601 46.8737 95.9209 46.7496 95.9399 46.616C95.9589 46.4824 95.9352 46.3462 95.8722 46.2271C98.993 47.873 103.119 48.988 104.018 48.988C104.917 48.988 109.043 47.873 112.164 46.2271C112.101 46.3462 112.077 46.4824 112.096 46.616C112.115 46.7496 112.176 46.8737 112.27 46.9704C112.582 47.1822 112.951 47.2933 113.328 47.289H114.227L115.073 47.0766L116.396 46.5456L115.073 46.2802L113.751 45.9085H112.957C113.77 45.4334 114.547 44.9011 115.285 44.3156C115.238 44.3602 115.201 44.4138 115.176 44.4731C115.151 44.5324 115.138 44.5962 115.138 44.6607C115.138 44.7252 115.151 44.7891 115.176 44.8484C115.201 44.9077 115.238 44.9613 115.285 45.0059C115.532 45.1822 115.828 45.2752 116.131 45.2713C116.477 45.2715 116.819 45.1992 117.136 45.059C117.665 44.8466 118.035 44.4218 118.511 44.1563L119.04 43.8909C119.15 43.8178 119.279 43.7807 119.411 43.7847L118.458 43.6785L117.612 43.5723C117.074 43.5081 116.528 43.5812 116.025 43.7847C117.865 42.215 119.253 40.1802 120.045 37.891C122.637 30.1922 120.098 23.2366 119.622 22.0685V21.5376C119.597 21.2215 119.507 20.9141 119.358 20.6349C119.155 20.2841 118.906 19.9625 118.617 19.6792C118.301 19.3748 117.965 19.091 117.612 18.8297C117.246 18.5453 116.91 18.2252 116.607 17.874C116.638 18.4053 116.763 18.9268 116.977 19.4137C117.083 19.6792 117.189 19.9447 117.295 20.1571C117.453 20.4151 117.649 20.6478 117.877 20.8473C118.197 21.1082 118.497 21.3921 118.776 21.6969L119.199 22.2809C120.184 24.7641 120.686 27.4133 120.68 30.086L120.521 29.8736L120.045 29.2364L119.305 28.4931L118.776 27.9621C118.755 28.0852 118.755 28.2108 118.776 28.3338C118.768 28.4753 118.768 28.6171 118.776 28.7586C118.827 29.1098 118.934 29.4505 119.093 29.7674C119.393 30.4647 119.914 31.0432 120.574 31.4134H120.733C120.68 32.1036 120.627 32.7939 120.521 33.4841L120.204 33.0593L119.728 32.4222L119.04 31.785L118.723 31.2541C118.585 31.4756 118.529 31.7386 118.564 31.9974C118.53 32.2793 118.513 32.563 118.511 32.847C118.5 33.1614 118.573 33.4732 118.723 33.7496C118.876 33.9791 119.08 34.1703 119.318 34.3084C119.557 34.4465 119.824 34.5278 120.098 34.546C119.893 35.6619 119.61 36.7619 119.252 37.8379C116.501 45.9085 104.97 48.0323 103.912 48.0323C102.854 48.0323 91.2703 45.9085 88.5726 37.8379C88.2142 36.7618 87.9314 35.6618 87.7263 34.546C88.0009 34.5278 88.2678 34.4465 88.5062 34.3084C88.7447 34.1703 88.9483 33.9791 89.1016 33.7496C89.2516 33.4732 89.3246 33.1614 89.3131 32.847C89.3119 32.563 89.2943 32.2793 89.2602 31.9974C89.2957 31.7386 89.2396 31.4756 89.1016 31.2541L88.7842 31.785L88.3081 32.4753L87.8321 33.1124L87.5147 33.5372C87.4089 32.847 87.356 32.1567 87.3031 31.4665H87.4089C88.0696 31.0963 88.5902 30.5178 88.89 29.8205C89.0493 29.5036 89.1564 29.1629 89.2073 28.8117C89.2148 28.6702 89.2148 28.5284 89.2073 28.3869C89.2291 28.264 89.2291 28.1382 89.2073 28.0152L88.6784 28.5462L87.9379 29.2895L87.4618 29.9267L87.3031 30.1391C87.2969 27.4664 87.7996 24.8172 88.7842 22.334L89.2073 21.75C89.4862 21.4453 89.7867 21.1614 90.1066 20.9004C90.3526 20.7049 90.5668 20.472 90.7413 20.2102C90.9 19.9447 90.9529 19.6792 91.0587 19.4668C91.2726 18.9799 91.398 18.4584 91.4289 17.9271C91.1263 18.2783 90.7897 18.5984 90.4239 18.8828C90.0711 19.144 89.7354 19.4278 89.4189 19.7323C89.13 20.0156 88.8808 20.3372 88.6784 20.688C88.5273 20.9666 88.4371 21.2743 88.4139 21.5907V22.1216C87.9379 23.2366 85.3989 30.2453 87.9908 37.9441C88.7834 40.2333 90.1713 42.2681 92.0108 43.8377C91.508 43.6343 90.9623 43.5612 90.4239 43.6254L89.5776 43.7316L88.6255 43.7847ZM94.6027 48.8818L95.1316 49.0942L95.8193 49.2004C96.2374 49.2811 96.663 49.3167 97.0887 49.3066C97.4665 49.2836 97.8398 49.2122 98.1995 49.0942C98.5094 48.9974 98.773 48.7895 98.9401 48.5102C98.9746 48.4186 98.9718 48.3171 98.9322 48.2276C98.8926 48.1381 98.8194 48.0679 98.7285 48.0323C98.2524 47.7668 97.5648 47.9792 97.0359 48.1385C96.5069 48.2978 95.3432 48.6695 94.5498 48.8818H94.6027ZM123.272 35.077C123.448 34.8395 123.574 34.5685 123.642 34.2805C123.666 34.1537 123.702 34.0294 123.748 33.9089C123.801 33.7496 124.012 33.6434 124.065 33.5372C124.123 33.3464 124.212 33.1668 124.33 33.0062C124.052 33.0083 123.779 33.0814 123.536 33.2186H123.378C122.998 33.3824 122.642 33.5967 122.32 33.8558C122.005 34.157 121.754 34.5179 121.579 34.9177C121.368 35.3955 121.262 35.9265 121.05 36.4575C121.597 36.2433 122.112 35.9576 122.584 35.6079C122.821 35.464 123.035 35.285 123.219 35.077H123.272ZM119.463 24.4578C119.427 24.1366 119.319 23.8279 119.146 23.5552C118.979 23.2727 118.764 23.0213 118.511 22.8119L117.559 22.1216C117.333 21.9467 117.084 21.8038 116.819 21.6969C117.021 22.2134 117.269 22.7109 117.559 23.1835C117.709 23.4631 117.906 23.7145 118.141 23.9269L118.776 24.2985L119.463 24.4578ZM116.237 38.3689C116.092 38.9593 116.168 39.5824 116.448 40.1211C116.615 40.3731 116.81 40.6048 117.03 40.8113C117.231 40.6775 117.395 40.4948 117.506 40.2803C117.645 40.0537 117.735 39.8006 117.771 39.537C117.806 39.2706 117.788 38.9999 117.718 38.7406C117.601 38.376 117.422 38.0346 117.189 37.7318C117.008 37.4702 116.866 37.1842 116.766 36.8822C116.659 37.1046 116.57 37.3354 116.501 37.5725C116.361 37.8229 116.255 38.0907 116.184 38.3689H116.237ZM115.496 40.2803C115.442 40.0629 115.371 39.8499 115.285 39.6432C115.206 39.5128 115.152 39.3687 115.126 39.2184C114.988 39.4324 114.882 39.6648 114.809 39.9087L114.491 40.652C114.384 40.8926 114.296 41.1411 114.227 41.3954C114.149 41.619 114.096 41.8505 114.068 42.0856C114.059 42.1925 114.074 42.3001 114.11 42.4009C114.147 42.5017 114.205 42.5934 114.28 42.6696C114.491 42.882 114.703 43.0413 114.862 42.7758L115.073 42.5104C115.218 42.3007 115.326 42.0671 115.391 41.8201C115.577 41.3287 115.614 40.7928 115.496 40.2803ZM118.3 37.4663C118.453 37.7445 118.67 37.9813 118.934 38.1565C119.049 37.905 119.121 37.6357 119.146 37.3601C119.189 37.0785 119.189 36.7921 119.146 36.5106C119.099 36.2085 118.991 35.9194 118.829 35.661C118.609 35.3684 118.431 35.0468 118.3 34.7053C118.276 34.6181 118.259 34.5294 118.247 34.4398C118.095 34.6254 117.986 34.8433 117.929 35.077C117.827 35.3328 117.756 35.6003 117.718 35.8734C117.697 36.1608 117.732 36.4497 117.823 36.7231C117.914 36.9965 118.058 37.2491 118.247 37.4663H118.3ZM119.463 27.5374L120.098 27.6436C120.046 26.9948 119.786 26.3803 119.358 25.8914L118.564 25.1481L117.877 24.5109C117.89 24.7789 117.926 25.0452 117.982 25.3074C118.024 25.6143 118.095 25.9165 118.194 26.21C118.302 26.5075 118.471 26.7792 118.69 27.0077C118.908 27.2363 119.172 27.4166 119.463 27.5374ZM113.962 34.9177C113.9 34.6475 113.751 34.4052 113.539 34.2274C113.398 34.1395 113.24 34.0844 113.075 34.066C112.91 34.0476 112.744 34.0665 112.587 34.1212C112.392 34.2105 112.219 34.3428 112.082 34.5082C111.944 34.6737 111.846 34.8681 111.794 35.077C111.725 35.2119 111.671 35.3545 111.635 35.5017V35.8734C111.212 39.0591 108.937 40.7051 104.811 40.8113C100.686 40.9175 99.8393 36.8822 99.7864 36.776L99.469 35.6079C99.168 34.4819 99.0081 33.3225 98.993 32.1567C98.9669 31.8643 99.0218 31.5703 99.1517 31.3072L99.3632 31.0417L99.6277 30.7762L99.9451 30.67L100.262 30.5638C100.461 30.5028 100.631 30.3705 100.739 30.1922C100.66 30.0752 100.55 29.9832 100.421 29.9267L100.051 29.7143C99.6917 29.6031 99.3137 29.567 98.9401 29.6081C98.9401 26.794 99.1517 24.1393 99.9451 22.0685C100.097 21.5616 100.369 21.0991 100.738 20.7201C101.106 20.3411 101.56 20.0569 102.061 19.8916C102.698 19.7191 103.359 19.6474 104.018 19.6792C104.692 19.6507 105.367 19.7042 106.028 19.8385C107.062 20.0961 107.999 20.6494 108.726 21.4314C109.075 21.7932 109.394 22.184 109.678 22.5995C109.949 23.0643 110.196 23.5427 110.418 24.0331C110.651 24.4941 110.916 24.9377 111.212 25.3605L111.688 25.9445C111.78 26.0533 111.893 26.1422 112.02 26.2061C112.148 26.2699 112.286 26.3074 112.428 26.3162C113.116 26.3162 113.751 26.21 113.857 25.5728C113.904 25.2679 113.867 24.9559 113.751 24.6702C113.715 24.53 113.632 24.4063 113.517 24.3195C113.402 24.2326 113.26 24.1878 113.116 24.1924V18.7235C113.129 18.5999 113.129 18.4754 113.116 18.3518L112.904 18.1395H112.534C112.181 18.1069 111.825 18.1248 111.476 18.1925C111.265 18.5642 111.053 18.989 110.471 18.9359H109.889L109.519 18.8297L106.98 17.9802C105.883 17.6456 104.741 17.4844 103.595 17.5023C102.738 17.5391 101.887 17.6636 101.056 17.874C99.9863 18.1507 98.9681 18.5989 98.0409 19.2014L97.2474 19.8385C95.6811 21.2049 94.4194 22.8874 93.5448 24.7764C92.8686 26.2773 92.5257 27.9079 92.5397 29.555C92.1487 29.5275 91.7558 29.5633 91.3761 29.6612L91.0058 29.8736C90.8697 29.9443 90.7588 30.0556 90.6884 30.1922C90.7062 30.2975 90.7628 30.3923 90.8471 30.4576H90.9529L91.1645 30.5638C91.586 30.8189 91.947 31.1632 92.2224 31.5727L92.5926 32.0505C92.6215 32.1364 92.6393 32.2256 92.6455 32.316C92.9705 34.091 93.6351 35.7859 94.6027 37.307C94.9079 37.8019 95.2623 38.2644 95.6606 38.6875C103.912 47.4483 111.318 40.8113 112.375 39.4839L113.063 38.422C113.363 37.9361 113.611 37.42 113.804 36.8822C114.037 36.2548 114.092 35.5746 113.962 34.9177ZM98.8343 17.4492C100.367 16.844 102.001 16.5377 103.648 16.5466C105.27 16.4868 106.884 16.8144 108.355 17.5023V17.2368C106.884 16.593 105.305 16.2328 103.701 16.1749C102.069 16.2435 100.46 16.5844 98.9401 17.1837V17.4492H98.8343ZM106.451 16.0687C105.607 15.8248 104.737 15.6822 103.859 15.644L103.648 11.1839L103.436 15.644C101.912 15.7465 100.413 16.0869 98.993 16.6528V16.9183C100.507 16.3134 102.124 16.0069 103.754 16.0156C105.359 15.9582 106.954 16.2859 108.408 16.9713V16.7059C107.91 16.4776 107.398 16.2825 106.874 16.1218L106.451 16.0687ZM106.874 16.1218L106.557 16.0156L106.874 16.1218ZM111.265 7.36103C111.265 7.36103 107.826 10.0689 107.245 11.6087C107.371 11.6223 107.492 11.6624 107.602 11.7265C107.711 11.7905 107.806 11.877 107.879 11.9804C106.821 12.9361 107.774 13.9449 107.086 14.7413C106.458 14.6034 105.84 14.4261 105.235 14.2104C104.335 13.0423 106.028 13.0423 104.917 11.9273C105.105 11.7006 105.368 11.5497 105.658 11.5025C105.34 10.9075 105.074 10.2856 104.864 9.64415C104.263 7.87082 103.855 6.0371 103.648 4.17529C103.476 6.03326 103.104 7.86698 102.537 9.64415C102.328 10.286 102.062 10.9079 101.744 11.5025C102.033 11.5497 102.296 11.7006 102.484 11.9273C101.426 13.0423 103.066 13.0423 102.167 14.2104C101.561 14.4261 100.943 14.6034 100.315 14.7413C99.6277 13.998 100.58 12.9892 99.5219 11.9804C99.5957 11.877 99.6904 11.7905 99.7998 11.7265C99.9091 11.6624 100.031 11.6223 100.157 11.6087C99.5748 10.0689 96.1366 7.36103 96.1366 7.36103C96.1366 7.36103 99.0988 10.7061 99.2046 14.6351C99.2151 15.2034 99.1797 15.7716 99.0988 16.3342C100.455 15.8089 101.881 15.4869 103.33 15.3785L103.648 10.0158L104.071 15.4316C105.51 15.53 106.923 15.8711 108.25 16.4404C108.17 15.8598 108.135 15.2741 108.144 14.6882C108.25 10.7061 111.212 7.41413 111.212 7.41413L111.265 7.36103Z" fill="white"/>
</svg>
