<svg width="2859" height="479" viewBox="0 0 2859 479" fill="none" xmlns="http://www.w3.org/2000/svg">
<g clip-path="url(#clip0_1_445)">
<path d="M115.935 212.813H219.161V360.516C219.161 435.149 181.039 478.032 109.58 478.032C38.116 478.032 0 435.155 0 360.516V117.522C0 42.877 38.116 0 109.58 0C181.045 0 219.161 42.878 219.161 117.522V163.581H149.284V112.762C149.284 79.42 134.993 66.717 111.168 66.717C87.342 66.717 73.058 79.42 73.058 112.762V365.278C73.058 398.626 87.349 411.342 111.168 411.342C134.987 411.342 149.284 398.625 149.284 365.278V279.516H115.935V212.813ZM325.567 319.227L233.451 6.361H309.683L365.27 219.174L420.851 6.361H492.315L398.619 319.227V474.858H325.567V319.227ZM676.542 338.278L727.361 6.361H829V473.272H759.122V138.181L708.303 473.264H638.426L584.432 142.935V473.264H520.903V6.355H622.543L676.542 338.278ZM981.464 0.007C1052.93 0.007 1089.46 42.884 1089.46 117.529V131.819H1019.57V112.761C1019.57 79.419 1006.87 66.716 983.045 66.716C959.226 66.716 946.523 79.419 946.523 112.761C946.523 209.638 1089.46 227.11 1089.46 360.515C1089.46 435.148 1051.34 478.031 979.872 478.031C908.407 478.031 870.291 435.154 870.291 360.515V331.921H940.169V365.276C940.169 398.618 954.465 411.335 978.291 411.335C1002.12 411.335 1016.4 398.618 1016.4 365.276C1016.4 268.399 873.471 250.921 873.471 117.521C873.47 42.884 909.993 0.007 981.464 0.007ZM1205.39 473.272H1132.34V6.361H1205.39V206.465H1289.56V6.361H1364.21V473.272H1289.56V273.168H1205.39V473.272ZM1654.83 473.272H1580.19L1567.48 389.096H1476.96L1464.26 473.272H1397.56L1472.19 6.361H1580.18L1654.83 473.272ZM1488.07 325.575H1559.54L1524.6 88.936L1488.07 325.575ZM1842.23 473.272C1837.47 460.555 1835.88 454.219 1835.88 416.11V343.051C1835.88 300.174 1821.58 284.303 1788.24 284.303H1762.83V474.877H1689.79V6.375H1800.94C1877.17 6.375 1910.53 41.311 1910.53 114.375V150.891C1910.53 198.537 1894.64 230.297 1862.88 246.188C1899.4 262.065 1912.1 297.02 1912.1 346.252V417.709C1912.1 439.949 1912.1 457.412 1920.05 474.877H1842.22L1842.23 473.272H1842.23ZM1762.82 73.058V215.987H1791.41C1818.41 215.987 1835.88 203.277 1835.88 166.755V120.697C1835.88 87.343 1824.76 73.051 1797.77 73.051L1762.82 73.061V73.058ZM2053.46 287.457L2031.22 330.336V473.264H1958.17V6.348H2031.22V209.625L2128.1 6.348H2201.16L2099.5 214.393L2201.16 473.264H2124.93L2053.46 287.457Z" fill="white"/>
<path d="M2248.8 7.94922H2858.64C2858.64 7.94922 2579.13 319.227 2437.79 473.272C2437.79 473.272 2448.91 449.465 2455.27 439.93C2448.91 439.93 2442.55 414.524 2434.62 401.801C2426.68 406.574 2418.73 409.748 2410.79 412.922C2402.86 417.69 2398.09 416.11 2393.33 406.594C2390.15 398.645 2386.98 389.115 2382.2 381.182C2374.27 384.356 2355.2 395.485 2352.02 395.485L2253.56 354.182C2255.15 354.182 2302.79 352.608 2323.43 354.182L2355.2 381.194C2363.13 373.266 2369.49 360.555 2375.85 354.182H2393.31C2399.66 360.541 2406.02 371.659 2412.37 379.594C2420.3 371.658 2429.83 362.129 2436.19 355.781H2448.89C2455.26 362.129 2463.18 371.658 2469.55 378.006C2469.55 378.006 2471.13 378.006 2472.7 379.594C2472.7 379.594 2485.42 365.303 2490.18 358.955H2504.47C2504.47 358.955 2683.93 88.9612 2685.53 85.7932C2541.01 58.7682 2248.8 7.94922 2248.8 7.94922V7.94922Z" fill="white"/>
<path d="M2426.67 168.35L2326.61 112.763C2385.35 127.053 2445.72 141.35 2504.48 154.06L2426.67 168.35Z" fill="white"/>
</g>
<defs>
<clipPath id="clip0_1_445">
<rect width="2858.64" height="478.032" fill="white"/>
</clipPath>
</defs>
</svg>
