<svg width="150" height="30" viewBox="0 0 150 30" fill="none" xmlns="http://www.w3.org/2000/svg">
<g clip-path="url(#clip0_1_663)">
<path d="M75.761 26.652C75.761 27.18 75.761 27.3 76.113 27.624L78.08 29.591V29.675H69.355V25.895C68.477 28.387 66.155 30.035 63.57 29.999C59.084 29.999 55.828 26.399 55.828 19.776C55.828 13.572 59.342 9.432 64.272 9.432C66.458 9.291 68.492 10.581 69.343 12.648V4.308C69.3753 4.11965 69.3552 3.92605 69.285 3.74831C69.2149 3.57057 69.0972 3.4155 68.945 3.3L67.071 1.452V1.368L75.761 0.324V26.652V26.652ZM69.355 25.452V13.008C69.0476 12.6132 68.6528 12.295 68.2017 12.0784C67.7505 11.8619 67.2554 11.7529 66.755 11.76C64.635 11.76 62.585 13.728 62.585 19.572C62.585 25.044 64.355 26.976 66.556 26.976C67.1102 26.9626 67.6533 26.8174 68.1402 26.5524C68.6271 26.2874 69.0439 25.9102 69.356 25.452H69.355ZM81.547 29.675V12.875C81.5745 12.6912 81.5569 12.5034 81.4956 12.328C81.4342 12.1525 81.3311 11.9946 81.195 11.868L79.263 9.828V9.744H87.988V26.784C87.988 27.312 87.988 27.432 88.339 27.756L90.26 29.603V29.687L81.547 29.675ZM81.23 3.6C81.23 1.612 82.803 0 84.744 0C86.684 0 88.257 1.612 88.257 3.6C88.257 5.588 86.684 7.2 84.744 7.2C82.804 7.2 81.23 5.588 81.23 3.6ZM111.528 26.616C111.528 27.144 111.528 27.3 111.879 27.624L113.847 29.591V29.675H105.075V25.368C104.276 28.091 101.843 29.968 99.067 29.999C95.179 29.999 93.094 27.096 93.094 21.599C93.094 18.948 93.094 16.044 93.176 12.779C93.2078 12.6006 93.1921 12.4169 93.1305 12.2465C93.0689 12.0761 92.9635 11.9248 92.825 11.808L90.892 9.828V9.744H99.547V20.7C99.547 24.3 100.062 26.7 102.264 26.7C102.85 26.6598 103.417 26.4728 103.913 26.1562C104.408 25.8395 104.815 25.4034 105.098 24.888V12.888C105.126 12.7041 105.108 12.5162 105.047 12.3406C104.986 12.1649 104.883 12.0068 104.747 11.88L102.803 9.828V9.744H111.528V26.616V26.616ZM141.228 29.676C141.228 29.027 141.345 20.772 141.345 18.876C141.345 15.276 140.795 12.792 138.324 12.792C137.707 12.8137 137.103 12.9816 136.564 13.282C136.024 13.5825 135.564 14.0068 135.22 14.52C135.468 15.642 135.586 16.79 135.572 17.94C135.572 20.436 135.49 23.616 135.454 26.796C135.39 27.161 135.524 27.533 135.806 27.768L137.773 29.615V29.699H128.966C128.966 29.099 129.083 20.796 129.083 18.899C129.083 15.239 128.533 12.816 126.097 12.816C125.502 12.8405 124.923 13.0165 124.415 13.3273C123.906 13.6381 123.486 14.0734 123.193 14.592V26.832C123.193 27.36 123.193 27.48 123.543 27.803L125.465 29.651V29.735H116.751V12.935C116.779 12.7513 116.761 12.5636 116.7 12.3881C116.639 12.2126 116.536 12.0547 116.4 11.928L114.468 9.828V9.744H123.193V14.016C124.001 11.196 126.58 9.301 129.446 9.42C132.351 9.42 134.318 11.076 135.15 14.22C136.073 11.32 138.732 9.375 141.708 9.42C145.597 9.42 147.798 12.36 147.798 17.916C147.798 20.568 147.716 23.592 147.681 26.772C147.647 26.9551 147.666 27.1442 147.737 27.3165C147.808 27.4889 147.926 27.6373 148.079 27.744L150 29.59V29.674H141.228V29.676ZM31.621 27.06L34.209 29.591V29.675H21.081V29.591L23.716 27.06C23.996 26.825 24.131 26.453 24.067 26.088V9.9C24.067 9.216 24.067 8.292 24.184 7.5L15.33 30H15.225L6.055 9.3C5.855 8.784 5.797 8.748 5.668 8.4V21.972C5.558 22.88 5.709 23.802 6.102 24.624L9.79 29.59V29.674H0V29.59L3.69 24.61C4.07968 23.7882 4.22943 22.8731 4.122 21.97V6.97C4.18251 6.23424 3.96524 5.50251 3.513 4.919L0.902 1.452V1.368H10.271L18.118 18.9L25.028 1.368H34.198V1.452L31.621 4.392C31.4688 4.5075 31.3511 4.66257 31.281 4.84031C31.2108 5.01805 31.1907 5.21165 31.223 5.4V26.088C31.189 26.2711 31.2085 26.4602 31.2791 26.6325C31.3496 26.8049 31.4683 26.9533 31.621 27.06V27.06ZM41.891 18.948V19.032C41.891 24.168 44.48 26.232 47.513 26.232C50.046 26.32 52.39 24.865 53.486 22.524H53.568C52.514 27.6 49.446 29.999 44.855 29.999C39.901 29.999 35.228 26.939 35.228 19.848C35.228 12.396 39.913 9.42 45.089 9.42C49.259 9.42 53.697 11.436 53.697 17.916V18.948H41.892H41.891ZM41.891 17.916H47.666V16.872C47.666 11.592 46.6 10.188 44.996 10.188C43.051 10.188 41.868 12.288 41.868 17.916H41.892H41.891Z" fill="white"/>
</g>
<defs>
<clipPath id="clip0_1_663">
<rect width="150" height="30" fill="white"/>
</clipPath>
</defs>
</svg>
