<svg width="173" height="44" viewBox="0 0 173 44" fill="none" xmlns="http://www.w3.org/2000/svg">
<g clip-path="url(#clip0_1_889)">
<path d="M55.174 34.8199L57.325 29.8249C59.651 31.5599 62.739 32.4619 65.794 32.4619C68.049 32.4619 69.472 31.5939 69.472 30.2759C69.438 26.5989 55.972 29.4779 55.868 20.2519C55.833 15.5689 59.998 11.9619 65.898 11.9619C69.403 11.9619 72.908 12.8279 75.408 14.8059L73.394 19.9049C71.104 18.4479 68.258 17.4069 65.551 17.4069C63.711 17.4069 62.496 18.2739 62.496 19.3839C62.531 22.9919 76.101 21.0139 76.24 29.8249C76.24 34.6119 72.18 37.9769 66.349 37.9769C62.08 37.9769 58.159 36.9709 55.174 34.8199M137.739 28.0219C136.663 29.8949 134.65 31.1779 132.325 31.1779C131.509 31.179 130.701 31.0193 129.947 30.7077C129.193 30.3961 128.508 29.9389 127.931 29.3622C127.353 28.7854 126.896 28.1005 126.584 27.3466C126.272 26.5928 126.111 25.7848 126.112 24.9689C126.111 24.153 126.272 23.3449 126.584 22.5911C126.896 21.8372 127.353 21.1523 127.931 20.5755C128.508 19.9988 129.193 19.5416 129.947 19.23C130.701 18.9184 131.509 18.7587 132.325 18.7599C134.65 18.7599 136.663 20.0429 137.739 21.9169L143.674 18.6209C141.452 14.6669 137.184 11.9609 132.324 11.9609C125.141 11.9609 119.31 17.7889 119.31 24.9689C119.31 32.1489 125.14 37.9769 132.325 37.9769C137.218 37.9769 141.452 35.3059 143.674 31.3169L137.739 28.0219ZM79.225 1.17285H86.652V37.4909H79.225V1.17285ZM146.589 1.17285V37.4909H154.016V26.5999L162.831 37.4919H172.341L161.131 24.5539L171.508 12.4829H162.415L154.015 22.5069V1.17285H146.589ZM108.725 28.0899C107.649 29.8599 105.428 31.1779 102.929 31.1779C102.113 31.179 101.305 31.0193 100.551 30.7077C99.7969 30.3961 99.1116 29.9389 98.5345 29.3622C97.9574 28.7854 97.4997 28.1005 97.1877 27.3466C96.8756 26.5928 96.7154 25.7848 96.716 24.9689C96.7154 24.153 96.8756 23.3449 97.1877 22.5911C97.4997 21.8372 97.9574 21.1523 98.5345 20.5755C99.1116 19.9988 99.7969 19.5416 100.551 19.23C101.305 18.9184 102.113 18.7587 102.929 18.7599C105.428 18.7599 107.649 20.1469 108.725 21.9509V28.0909V28.0899ZM108.725 12.4819V15.4299C107.51 13.3829 104.491 11.9609 101.332 11.9609C94.808 11.9609 89.672 17.7189 89.672 24.9339C89.672 32.1489 94.808 37.9769 101.332 37.9769C104.491 37.9769 107.51 36.5549 108.725 34.5079V37.4569H116.152V12.4819H108.725Z" fill="white"/>
<path d="M9.415 27.692C9.41566 28.2923 9.29794 28.8868 9.06857 29.4415C8.8392 29.9962 8.50269 30.5002 8.0783 30.9246C7.65391 31.3491 7.14998 31.6857 6.59534 31.9152C6.0407 32.1447 5.44625 32.2626 4.846 32.2621C4.24568 32.2627 3.65112 32.145 3.09636 31.9155C2.54161 31.6861 2.03755 31.3495 1.61306 30.925C1.18856 30.5005 0.851965 29.9964 0.622534 29.4417C0.393103 28.8869 0.275346 28.2924 0.276004 27.692C0.275477 27.0918 0.393332 26.4974 0.622822 25.9427C0.852312 25.3881 1.18893 24.8841 1.61341 24.4598C2.03789 24.0354 2.5419 23.6989 3.09659 23.4695C3.65128 23.2401 4.24576 23.1224 4.846 23.123H9.416V27.6931L9.415 27.692ZM11.7 27.692C11.6995 27.0918 11.8173 26.4974 12.0468 25.9427C12.2763 25.3881 12.6129 24.8841 13.0374 24.4598C13.4619 24.0354 13.9659 23.6989 14.5206 23.4695C15.0753 23.2401 15.6698 23.1224 16.27 23.123C16.8702 23.1227 17.4645 23.2406 18.019 23.4702C18.5736 23.6997 19.0774 24.0363 19.5017 24.4608C19.9259 24.8853 20.2624 25.3892 20.4917 25.9439C20.721 26.4985 20.8387 27.0929 20.838 27.6931V39.1151C20.8387 39.7153 20.7209 40.3098 20.4916 40.8645C20.2622 41.4191 19.9257 41.9232 19.5013 42.3476C19.0769 42.7721 18.573 43.1087 18.0183 43.3382C17.4637 43.5677 16.8692 43.6856 16.269 43.6851C15.6688 43.6856 15.0743 43.5677 14.5197 43.3382C13.965 43.1087 13.4611 42.7721 13.0367 42.3476C12.6123 41.9232 12.2758 41.4191 12.0464 40.8645C11.8171 40.3098 11.6993 39.7153 11.7 39.1151V27.692V27.692Z" fill="white"/>
<path d="M16.27 9.34599C15.6697 9.34664 15.0751 9.22889 14.5204 8.99946C13.9656 8.77003 13.4616 8.43343 13.0371 8.00893C12.6126 7.58444 12.276 7.08038 12.0465 6.52563C11.8171 5.97087 11.6993 5.37631 11.7 4.77599C11.6997 4.17591 11.8178 3.58168 12.0474 3.02727C12.277 2.47286 12.6137 1.96916 13.0381 1.54498C13.4626 1.12081 13.9665 0.784475 14.5211 0.555232C15.0756 0.325988 15.6699 0.20833 16.27 0.208987C16.8701 0.208593 17.4643 0.326511 18.0188 0.555997C18.5733 0.785484 19.077 1.12203 19.5013 1.5464C19.9256 1.97076 20.262 2.47461 20.4914 3.02912C20.7207 3.58362 20.8385 4.17791 20.838 4.77799V9.34799H16.27V9.34599ZM16.27 11.665C16.8702 11.6646 17.4645 11.7825 18.019 12.0121C18.5736 12.2416 19.0774 12.5783 19.5017 13.0027C19.9259 13.4272 20.2624 13.9312 20.4917 14.4858C20.721 15.0404 20.8387 15.6348 20.838 16.235C20.8385 16.8351 20.7207 17.4295 20.4913 17.9841C20.2619 18.5387 19.9253 19.0426 19.501 19.4669C19.0766 19.8913 18.5727 20.2278 18.0181 20.4573C17.4635 20.6867 16.8692 20.8045 16.269 20.804H4.81201C4.21168 20.8046 3.61712 20.6869 3.06237 20.4575C2.50761 20.228 2.00356 19.8914 1.57906 19.4669C1.15457 19.0424 0.817969 18.5384 0.588538 17.9836C0.359107 17.4289 0.241349 16.8343 0.242007 16.234C0.241481 15.6337 0.359335 15.0393 0.588825 14.4847C0.818315 13.93 1.15493 13.4261 1.57942 13.0017C2.0039 12.5773 2.50791 12.2408 3.0626 12.0114C3.61729 11.7821 4.21177 11.6643 4.81201 11.665H16.269H16.27Z" fill="white"/>
<path d="M34.58 16.235C34.5794 15.6347 34.6971 15.0401 34.9266 14.4854C35.156 13.9306 35.4926 13.4266 35.9171 13.0021C36.3416 12.5776 36.8456 12.241 37.4004 12.0115C37.9551 11.7821 38.5497 11.6644 39.15 11.665C39.7503 11.6644 40.3449 11.7821 40.8997 12.0115C41.4544 12.241 41.9585 12.5776 42.383 13.0021C42.8075 13.4266 43.1441 13.9306 43.3735 14.4854C43.6029 15.0401 43.7207 15.6347 43.72 16.235C43.7205 16.8353 43.6027 17.4297 43.3732 17.9843C43.1437 18.539 42.8071 19.0429 42.3826 19.4673C41.9581 19.8917 41.4541 20.2282 40.8994 20.4576C40.3447 20.6869 39.7503 20.8047 39.15 20.804H34.58V16.234V16.235ZM32.296 16.235C32.2965 16.8353 32.1787 17.4297 31.9492 17.9843C31.7197 18.539 31.3831 19.0429 30.9586 19.4673C30.5341 19.8917 30.0301 20.2282 29.4754 20.4576C28.9207 20.6869 28.3263 20.8047 27.726 20.804C27.1259 20.8044 26.5315 20.6865 25.977 20.4569C25.4225 20.2274 24.9187 19.8907 24.4944 19.4662C24.0701 19.0418 23.7337 18.5378 23.5044 17.9832C23.2751 17.4286 23.1574 16.8342 23.158 16.234V4.77801C23.1574 4.17777 23.2751 3.58329 23.5045 3.0286C23.7338 2.47391 24.0703 1.9699 24.4947 1.54542C24.9191 1.12094 25.423 0.784319 25.9777 0.554829C26.5323 0.325339 27.1268 0.207484 27.727 0.208011C28.3273 0.207353 28.9219 0.32511 29.4767 0.554541C30.0314 0.783972 30.5355 1.12057 30.96 1.54507C31.3845 1.96956 31.7211 2.47361 31.9505 3.02837C32.1799 3.58312 32.2977 4.17768 32.297 4.77801V16.236L32.296 16.235Z" fill="white"/>
<path d="M27.727 34.5461C28.3273 34.5454 28.9219 34.6632 29.4766 34.8926C30.0314 35.122 30.5354 35.4586 30.9599 35.8831C31.3844 36.3076 31.721 36.8117 31.9505 37.3664C32.1799 37.9212 32.2976 38.5157 32.297 39.1161C32.2975 39.7163 32.1797 40.3107 31.9502 40.8654C31.7207 41.42 31.3841 41.924 30.9596 42.3483C30.5351 42.7727 30.0311 43.1092 29.4764 43.3386C28.9217 43.568 28.3272 43.6857 27.727 43.6851C27.1267 43.6857 26.5321 43.568 25.9773 43.3385C25.4226 43.1091 24.9185 42.7725 24.494 42.348C24.0695 41.9235 23.7329 41.4194 23.5035 40.8647C23.2741 40.3099 23.1563 39.7154 23.157 39.1151V34.5461H27.727V34.5461ZM27.727 32.2621C27.1267 32.2627 26.5321 32.145 25.9773 31.9155C25.4226 31.6861 24.9185 31.3495 24.494 30.925C24.0695 30.5005 23.7329 29.9964 23.5035 29.4417C23.2741 28.8869 23.1563 28.2924 23.157 27.692C23.1565 27.0918 23.2743 26.4974 23.5038 25.9427C23.7333 25.3881 24.0699 24.8841 24.4944 24.4598C24.9189 24.0354 25.4229 23.6989 25.9776 23.4695C26.5323 23.2401 27.1267 23.1224 27.727 23.123H39.185C39.7852 23.1225 40.3797 23.2404 40.9343 23.4699C41.489 23.6994 41.9929 24.036 42.4173 24.4605C42.8417 24.8849 43.1782 25.389 43.4076 25.9436C43.6369 26.4983 43.7546 27.0928 43.754 27.6931C43.7545 28.2933 43.6367 28.8877 43.4072 29.4424C43.1777 29.997 42.8411 30.501 42.4166 30.9253C41.9921 31.3497 41.4881 31.6862 40.9334 31.9156C40.3787 32.145 39.7842 32.2627 39.184 32.2621H27.728H27.727Z" fill="white"/>
</g>
<defs>
<clipPath id="clip0_1_889">
<rect width="173" height="44" fill="white"/>
</clipPath>
</defs>
</svg>
